# xmcd
#
# Track frame offsets:
#	167
#	15742
#	33372
#	48887
#	61200
#	78802
#	97767
#	112780
#	129935
#	146502
#	159257
#	174125
#
# Disc length: 2552 seconds
#
# Revision: 1
# Processed by: cddbd v1.4PL0 Copyright (c) Steve Scherf et al.
# Submitted via: audiograbber 1.80
#
DISCID=7909f60c
DTITLE=Persuaders - Thin Line Between Love and Hate
DYEAR=1900
DGENRE=
TTITLE0=Thin Line Between Love And Hate
TTITLE1=Let's Get Down Together
TTITLE2=Blood Brothers
TTITLE3=You Musta Put Something In Your Love
TTITLE4=Thanks For Loving Me
TTITLE5=Bad Bold Anad Beautiful Girls
TTITLE6=Love Gonna Pack Up (And Walk Out)
TTITLE7=If This Is What You Call Love (I Don't Want No Part Of It)
TTITLE8=Mr. Sunshine
TTITLE9=Thigh Spy
TTITLE10=Can't Go No Further And Do No Better
TTITLE11=Peace In The Valley Of Love
EXTD=
EXTT0=
EXTT1=
EXTT2=
EXTT3=
EXTT4=
EXTT5=
EXTT6=
EXTT7=
EXTT8=
EXTT9=
EXTT10=
EXTT11=
PLAYORDER=
